<svg id="Layer_1" data-name="Layer 1" xmlns="http://www.w3.org/2000/svg" xmlns:xlink="http://www.w3.org/1999/xlink" viewBox="0 0 201.76 203.55"><defs><style>.cls-1,.cls-10,.cls-11,.cls-12,.cls-13,.cls-14,.cls-15,.cls-16,.cls-2,.cls-3,.cls-4,.cls-5,.cls-6,.cls-7,.cls-8,.cls-9{opacity:0.19;isolation:isolate;}.cls-1{fill:url(#linear-gradient);}.cls-2{fill:url(#linear-gradient-2);}.cls-3{fill:url(#linear-gradient-3);}.cls-4{fill:url(#linear-gradient-4);}.cls-5{fill:url(#linear-gradient-5);}.cls-6{fill:url(#linear-gradient-6);}.cls-7{fill:url(#linear-gradient-7);}.cls-8{fill:url(#linear-gradient-8);}.cls-9{fill:url(#linear-gradient-9);}.cls-10{fill:url(#linear-gradient-10);}.cls-11{fill:url(#linear-gradient-11);}.cls-12{fill:url(#linear-gradient-12);}.cls-13{fill:url(#linear-gradient-13);}.cls-14{fill:url(#linear-gradient-14);}.cls-15{fill:url(#linear-gradient-15);}.cls-16{fill:url(#linear-gradient-16);}</style><linearGradient id="linear-gradient" x1="38.77" y1="162.61" x2="112.12" y2="74.36" gradientTransform="matrix(0.97, 0.26, 0.26, -0.97, -39.87, 246.56)" gradientUnits="userSpaceOnUse"><stop offset="0" stop-color="#e9006e"/><stop offset="0.18" stop-color="#c32682"/><stop offset="0.59" stop-color="#6485b2"/><stop offset="1" stop-color="#00e9e6"/></linearGradient><linearGradient id="linear-gradient-2" x1="-259.17" y1="20.15" x2="-201.05" y2="-49.78" gradientTransform="matrix(-0.78, 0.62, 0.62, 0.78, -10.73, 229.5)" xlink:href="#linear-gradient"/><linearGradient id="linear-gradient-3" x1="-22.98" y1="173.92" x2="50.39" y2="85.65" gradientTransform="matrix(0.76, -0.3, -0.29, -0.77, 76.68, 142.5)" xlink:href="#linear-gradient"/><linearGradient id="linear-gradient-4" x1="41.78" y1="63.56" x2="115.11" y2="-24.66" gradientTransform="matrix(0.75, -0.3, -0.28, -0.76, 38.79, 132.11)" xlink:href="#linear-gradient"/><linearGradient id="linear-gradient-5" x1="557.17" y1="-229.3" x2="630.5" y2="-317.52" gradientTransform="matrix(-0.51, 0.19, 0.19, 0.51, 469.43, 200.44)" xlink:href="#linear-gradient"/><linearGradient id="linear-gradient-6" x1="-614.55" y1="-82.4" x2="-541.22" y2="-170.62" gradientTransform="matrix(-0.13, 0.53, 0.53, 0.13, 15.79, 495.61)" xlink:href="#linear-gradient"/><linearGradient id="linear-gradient-7" x1="-68.24" y1="275.56" x2="-2.93" y2="196.97" gradientTransform="matrix(-0.97, -0.26, -0.26, 0.97, 129.55, -194.29)" xlink:href="#linear-gradient"/><linearGradient id="linear-gradient-8" x1="-77.05" y1="178.77" x2="-12.58" y2="101.2" gradientTransform="matrix(0.05, 1, 1, -0.05, -29.49, 214.6)" xlink:href="#linear-gradient"/><linearGradient id="linear-gradient-9" x1="-92.39" y1="417.91" x2="-34.33" y2="348.05" gradientTransform="matrix(-0.65, 0.24, 0.26, 0.64, 25.29, -51.87)" xlink:href="#linear-gradient"/><linearGradient id="linear-gradient-10" x1="-161.1" y1="298.92" x2="-111.36" y2="239.07" gradientTransform="matrix(0.3, 0.75, 0.76, -0.28, 11.15, 289)" xlink:href="#linear-gradient"/><linearGradient id="linear-gradient-11" x1="322.08" y1="303.64" x2="353.44" y2="265.92" gradientTransform="matrix(0.52, 0.46, -0.44, 0.53, -35.56, -170.76)" xlink:href="#linear-gradient"/><linearGradient id="linear-gradient-12" x1="-238.97" y1="202.34" x2="-166.69" y2="115.38" gradientTransform="matrix(-0.83, -0.56, -0.56, 0.83, 71.13, -112.89)" xlink:href="#linear-gradient"/><linearGradient id="linear-gradient-13" x1="249.07" y1="84.82" x2="325.9" y2="-7.62" gradientTransform="matrix(0.51, -0.19, -0.19, -0.51, 15.3, 100.41)" xlink:href="#linear-gradient"/><linearGradient id="linear-gradient-14" x1="159.43" y1="45.46" x2="198.46" y2="-1.49" gradientTransform="matrix(1, 0, 0, 1, 0, 0)" xlink:href="#linear-gradient"/><linearGradient id="linear-gradient-15" x1="-1.13" y1="119.32" x2="51.06" y2="56.54" gradientTransform="matrix(1, 0, 0, 1, 0, 0)" xlink:href="#linear-gradient"/><linearGradient id="linear-gradient-16" x1="-4.71" y1="46.39" x2="30.07" y2="4.55" gradientTransform="matrix(1, 0, 0, 1, 0, 0)" xlink:href="#linear-gradient"/></defs><title>polygon-3</title><polygon class="cls-1" points="95.26 200.3 23.96 200.6 1.66 132.8 59.16 90.6 117.06 132.4 95.26 200.3"/><polygon class="cls-2" points="113.9 71.31 146.81 25.77 200.51 43.72 200.76 100.35 147.22 117.39 113.9 71.31"/><polygon class="cls-3" points="93.76 55.7 46.96 90.7 0.26 56.6 18.26 0.6 75.96 0 93.76 55.7"/><polygon class="cls-4" points="134.96 110.2 88.76 145.3 42.96 111.5 60.86 55.6 117.76 54.8 134.96 110.2"/><polygon class="cls-5" points="86.06 163.61 117.4 140.9 148.76 163.69 136.64 200.52 97.94 200.48 86.06 163.61"/><polygon class="cls-6" points="0.6 192.24 0 153.44 36.67 140.9 59.96 171.77 37.62 203.56 0.6 192.24"/><polygon class="cls-7" points="74.36 0.45 140.76 0 161.76 59.84 108.36 97.33 54.36 60.64 74.36 0.45"/><polygon class="cls-8" points="74.06 200.4 53.46 145.98 107.16 112.3 160.96 145.9 140.46 200.32 74.06 200.4"/><polygon class="cls-9" points="134.96 167.54 168.05 147.3 201.76 167.61 189.7 200.3 148.36 200.3 134.96 167.54"/><polygon class="cls-10" points="163.25 141.2 138.66 110.28 162.05 79.5 201.05 91.39 201.76 129.52 163.25 141.2"/><polygon class="cls-11" points="32.36 135 21.35 117.39 1.63 124.07 0.4 145.83 19.44 152.6 32.36 135"/><polygon class="cls-12" points="137.96 76.5 200.86 98.9 200.26 169.2 136.86 190.3 98.36 133 137.96 76.5"/><polygon class="cls-13" points="184.65 36.3 151.09 58.8 117.41 36.5 130.1 0.1 171.62 0 184.65 36.3"/><rect class="cls-14" x="157.33" y="0.3" width="43.18" height="43.42"/><rect class="cls-15" x="0.96" y="54.8" width="48" height="66.26"/><rect class="cls-16" x="0.4" y="0.3" width="24.56" height="50.33"/></svg>