<svg id="Layer_1" data-name="Layer 1" xmlns="http://www.w3.org/2000/svg" xmlns:xlink="http://www.w3.org/1999/xlink" viewBox="0 0 202.37 200.6"><defs><style>.cls-1,.cls-10,.cls-11,.cls-12,.cls-13,.cls-14,.cls-15,.cls-16,.cls-2,.cls-3,.cls-4,.cls-5,.cls-6,.cls-7,.cls-8,.cls-9{opacity:0.19;isolation:isolate;}.cls-1{fill:url(#linear-gradient);}.cls-2{fill:url(#linear-gradient-2);}.cls-3{fill:url(#linear-gradient-3);}.cls-4{fill:url(#linear-gradient-4);}.cls-5{fill:url(#linear-gradient-5);}.cls-6{fill:url(#linear-gradient-6);}.cls-7{fill:url(#linear-gradient-7);}.cls-8{fill:url(#linear-gradient-8);}.cls-9{fill:url(#linear-gradient-9);}.cls-10{fill:url(#linear-gradient-10);}.cls-11{fill:url(#linear-gradient-11);}.cls-12{fill:url(#linear-gradient-12);}.cls-13{fill:url(#linear-gradient-13);}.cls-14{fill:url(#linear-gradient-14);}.cls-15{fill:url(#linear-gradient-15);}.cls-16{fill:url(#linear-gradient-16);}</style><linearGradient id="linear-gradient" x1="38.77" y1="162.61" x2="112.12" y2="74.36" gradientTransform="matrix(0.97, 0.26, 0.26, -0.97, -40.14, 246.56)" gradientUnits="userSpaceOnUse"><stop offset="0" stop-color="#e9006e"/><stop offset="0.18" stop-color="#c32682"/><stop offset="0.59" stop-color="#6485b2"/><stop offset="1" stop-color="#00e9e6"/></linearGradient><linearGradient id="linear-gradient-2" x1="-239.09" y1="13.35" x2="-180.97" y2="-56.57" gradientTransform="matrix(-0.05, -1, -1, 0.05, 120.4, -161.73)" xlink:href="#linear-gradient"/><linearGradient id="linear-gradient-3" x1="-22.98" y1="173.92" x2="50.39" y2="85.65" gradientTransform="matrix(0.76, -0.3, -0.29, -0.77, 76.41, 142.5)" xlink:href="#linear-gradient"/><linearGradient id="linear-gradient-4" x1="41.78" y1="63.56" x2="115.11" y2="-24.66" gradientTransform="matrix(0.75, -0.3, -0.28, -0.76, 38.52, 132.11)" xlink:href="#linear-gradient"/><linearGradient id="linear-gradient-5" x1="44.32" y1="-117.24" x2="117.65" y2="-205.46" gradientTransform="matrix(0.51, -0.19, -0.19, -0.51, 15.04, 100.41)" xlink:href="#linear-gradient"/><linearGradient id="linear-gradient-6" x1="-477.73" y1="-54.62" x2="-404.44" y2="-142.79" gradientTransform="matrix(0.1, -0.53, -0.53, -0.1, 26.79, -158.43)" xlink:href="#linear-gradient"/><linearGradient id="linear-gradient-7" x1="267.83" y1="643.5" x2="328.42" y2="570.61" gradientTransform="matrix(-0.03, -0.57, -0.58, 0.01, 531.36, 185.17)" xlink:href="#linear-gradient"/><linearGradient id="linear-gradient-8" x1="-620.55" y1="-81.54" x2="-547.22" y2="-169.76" gradientTransform="matrix(0.1, -0.53, -0.53, -0.1, 26.79, -158.43)" xlink:href="#linear-gradient"/><linearGradient id="linear-gradient-9" x1="-68.31" y1="279.13" x2="-2.99" y2="200.54" gradientTransform="matrix(-0.97, -0.26, -0.26, 0.97, 129.28, -194.29)" xlink:href="#linear-gradient"/><linearGradient id="linear-gradient-10" x1="-77.05" y1="178.77" x2="-12.58" y2="101.2" gradientTransform="matrix(0.05, 1, 1, -0.05, -29.76, 214.6)" xlink:href="#linear-gradient"/><linearGradient id="linear-gradient-11" x1="-88.85" y1="406.61" x2="-19.42" y2="323.08" gradientTransform="matrix(-0.65, 0.24, 0.26, 0.64, 25.02, -51.87)" xlink:href="#linear-gradient"/><linearGradient id="linear-gradient-12" x1="-88.38" y1="278.82" x2="-38.63" y2="218.97" gradientTransform="matrix(-0.75, 0.3, 0.28, 0.76, 51.04, -79.54)" xlink:href="#linear-gradient"/><linearGradient id="linear-gradient-13" x1="315.85" y1="326.63" x2="347.2" y2="288.91" gradientTransform="matrix(0.6, -0.09, 0.1, 0.62, -213.34, -46.05)" xlink:href="#linear-gradient"/><linearGradient id="linear-gradient-14" x1="-238.97" y1="202.34" x2="-166.69" y2="115.38" gradientTransform="matrix(-0.83, -0.56, -0.56, 0.83, 70.87, -112.89)" xlink:href="#linear-gradient"/><linearGradient id="linear-gradient-15" x1="41.83" y1="87.11" x2="110.06" y2="5.02" gradientTransform="matrix(0.38, -0.39, -0.39, -0.38, 17.55, 77.05)" xlink:href="#linear-gradient"/><linearGradient id="linear-gradient-16" x1="177.43" y1="105.42" x2="246.82" y2="21.93" gradientTransform="matrix(0.51, -0.19, -0.19, -0.51, 15.04, 100.41)" xlink:href="#linear-gradient"/></defs><title>polygon-3</title><polygon class="cls-1" points="95 200.3 23.7 200.6 1.4 132.8 58.9 90.6 116.8 132.4 95 200.3"/><polygon class="cls-2" points="180.9 11.74 198.37 65.14 152.26 98.02 106.32 64.91 124.03 11.58 180.9 11.74"/><polygon class="cls-3" points="93.5 55.7 46.7 90.7 0 56.6 18 0.6 75.7 0 93.5 55.7"/><polygon class="cls-4" points="134.7 110.2 88.5 145.3 42.7 111.5 60.6 55.6 117.5 54.8 134.7 110.2"/><polygon class="cls-5" points="116.8 177.7 85.6 200.6 54.1 178 66 141.1 104.7 140.9 116.8 177.7"/><polygon class="cls-6" points="58.6 67.9 61.5 106.5 25.6 121.2 0.6 91.6 21 58.6 58.6 67.9"/><polygon class="cls-7" points="191.04 1.45 202.37 33.67 174.38 52.13 145.81 31.27 156.15 0 191.04 1.45"/><polygon class="cls-8" points="58.1 146.7 60.9 185.4 25 200 0 170.5 20.5 137.5 58.1 146.7"/><polygon class="cls-9" points="73.25 3.91 139.65 3.46 160.65 63.3 107.25 100.8 53.25 64.11 73.25 3.91"/><polygon class="cls-10" points="73.8 200.4 53.2 145.98 106.9 112.3 160.7 145.9 140.2 200.32 73.8 200.4"/><polygon class="cls-11" points="118.9 154.5 156.2 126.2 194.2 154.6 180.6 200.3 134 200.3 118.9 154.5"/><polygon class="cls-12" points="139 79.39 169.92 54.8 200.7 78.19 188.81 117.19 150.68 117.9 139 79.39"/><polygon class="cls-13" points="26.16 103.13 8.23 100.26 1.38 117.77 15.06 131.5 30.41 122.43 26.16 103.13"/><polygon class="cls-14" points="137.7 76.5 200.6 98.9 200 169.2 136.6 190.3 98.1 133 137.7 76.5"/><polygon class="cls-15" points="57.3 27.7 40.1 61.2 4.6 54.2 0 16.3 32.6 0 57.3 27.7"/><polygon class="cls-16" points="137.8 38 108.7 60.5 79.5 38.2 90.5 1.8 126.5 1.7 137.8 38"/></svg>