<?xml version="1.0" encoding="utf-8"?>
<!-- Generator: Adobe Illustrator 22.1.0, SVG Export Plug-In . SVG Version: 6.00 Build 0)  -->
<svg version="1.1" id="Layer_1" xmlns="http://www.w3.org/2000/svg" xmlns:xlink="http://www.w3.org/1999/xlink" x="0px" y="0px"
	 viewBox="0 0 200 200" style="enable-background:new 0 0 200 200;" xml:space="preserve">
<style type="text/css">
	.st0{opacity:0.19;fill:url(#SVGID_1_);}
	.st1{opacity:0.19;fill:url(#SVGID_2_);}
	.st2{opacity:0.19;fill:url(#SVGID_3_);}
	.st3{opacity:0.19;fill:url(#SVGID_4_);}
	.st4{opacity:0.19;fill:url(#SVGID_5_);}
	.st5{opacity:0.19;fill:url(#SVGID_6_);}
	.st6{opacity:0.19;fill:url(#SVGID_7_);}
	.st7{opacity:0.19;fill:url(#SVGID_8_);}
	.st8{opacity:0.19;fill:url(#SVGID_9_);}
	.st9{opacity:0.19;fill:url(#SVGID_10_);}
	.st10{opacity:0.19;fill:url(#SVGID_11_);}
	.st11{opacity:0.19;fill:url(#SVGID_12_);}
	.st12{opacity:0.19;fill:url(#SVGID_13_);}
	.st13{opacity:0.19;fill:url(#SVGID_14_);}
	.st14{opacity:0.19;fill:url(#SVGID_15_);}
	.st15{opacity:0.19;fill:url(#SVGID_16_);}
</style>
<linearGradient id="SVGID_1_" gradientUnits="userSpaceOnUse" x1="24.7164" y1="80.5444" x2="98.044" y2="168.7667" gradientTransform="matrix(0.9658 0.2591 -0.2591 0.9658 35.771 15.0936)">
	<stop  offset="0" style="stop-color:#E9006E"/>
	<stop  offset="0.1846" style="stop-color:#C32682"/>
	<stop  offset="0.5935" style="stop-color:#6485B2"/>
	<stop  offset="1" style="stop-color:#00E9E6"/>
</linearGradient>
<polygon class="st0" points="94.3,200 23,200.3 0.7,132.5 58.2,90.3 116.1,132.1 "/>
<linearGradient id="SVGID_2_" gradientUnits="userSpaceOnUse" x1="-14.5728" y1="101.8323" x2="58.7548" y2="190.0546" gradientTransform="matrix(-4.580876e-02 -0.999 0.999 -4.580876e-02 -0.197 73.4671)">
	<stop  offset="0" style="stop-color:#E9006E"/>
	<stop  offset="0.1846" style="stop-color:#C32682"/>
	<stop  offset="0.5935" style="stop-color:#6485B2"/>
	<stop  offset="1" style="stop-color:#00E9E6"/>
</linearGradient>
<polygon class="st1" points="181.3,-0.1 203.2,67.8 145.4,109.6 87.8,67.5 110,-0.3 "/>
<linearGradient id="SVGID_3_" gradientUnits="userSpaceOnUse" x1="-13.8465" y1="-49.0582" x2="59.4812" y2="39.1641" gradientTransform="matrix(0.7572 -0.2994 0.2851 0.7667 33.201 49.199)">
	<stop  offset="0" style="stop-color:#E9006E"/>
	<stop  offset="0.1846" style="stop-color:#C32682"/>
	<stop  offset="0.5935" style="stop-color:#6485B2"/>
	<stop  offset="1" style="stop-color:#00E9E6"/>
</linearGradient>
<polygon class="st2" points="92.8,55.4 46,90.4 -0.7,56.3 17.3,0.3 75,-0.3 "/>
<linearGradient id="SVGID_4_" gradientUnits="userSpaceOnUse" x1="48.186" y1="59.0225" x2="121.5136" y2="147.2449" gradientTransform="matrix(0.7465 -0.3018 0.2771 0.7628 -0.8864 40.247)">
	<stop  offset="0" style="stop-color:#E9006E"/>
	<stop  offset="0.1846" style="stop-color:#C32682"/>
	<stop  offset="0.5935" style="stop-color:#6485B2"/>
	<stop  offset="1" style="stop-color:#00E9E6"/>
</linearGradient>
<polygon class="st3" points="134,109.9 87.8,145 42,111.2 59.9,55.3 116.8,54.5 "/>
<linearGradient id="SVGID_5_" gradientUnits="userSpaceOnUse" x1="69.2834" y1="198.7254" x2="142.611" y2="286.9477" gradientTransform="matrix(0.507 -0.1942 0.1946 0.5068 34.0858 63.172)">
	<stop  offset="0" style="stop-color:#E9006E"/>
	<stop  offset="0.1846" style="stop-color:#C32682"/>
	<stop  offset="0.5935" style="stop-color:#6485B2"/>
	<stop  offset="1" style="stop-color:#00E9E6"/>
</linearGradient>
<polygon class="st4" points="164.4,176.9 133.2,199.8 101.7,177.2 113.6,140.3 152.3,140.1 "/>
<linearGradient id="SVGID_6_" gradientUnits="userSpaceOnUse" x1="-247.3553" y1="35.0743" x2="-174.0277" y2="123.2966" gradientTransform="matrix(0.1041 -0.5328 0.5328 0.1037 12.5273 -33.9665)">
	<stop  offset="0" style="stop-color:#E9006E"/>
	<stop  offset="0.1846" style="stop-color:#C32682"/>
	<stop  offset="0.5935" style="stop-color:#6485B2"/>
	<stop  offset="1" style="stop-color:#00E9E6"/>
</linearGradient>
<polygon class="st5" points="57.9,67.6 60.8,106.2 24.9,120.9 -0.1,91.3 20.3,58.3 "/>
<linearGradient id="SVGID_7_" gradientUnits="userSpaceOnUse" x1="262.7494" y1="-60.8764" x2="323.5967" y2="12.3306" gradientTransform="matrix(-0.1008 0.6429 -0.6438 -0.1209 188.9032 -156.8239)">
	<stop  offset="0" style="stop-color:#E9006E"/>
	<stop  offset="0.1846" style="stop-color:#C32682"/>
	<stop  offset="0.5935" style="stop-color:#6485B2"/>
	<stop  offset="1" style="stop-color:#00E9E6"/>
</linearGradient>
<polygon class="st6" points="150.7,53.7 145.5,14.2 180.9,-0.3 207.9,30.3 189.2,63.6 "/>
<linearGradient id="SVGID_8_" gradientUnits="userSpaceOnUse" x1="-390.1531" y1="61.9605" x2="-316.8255" y2="150.1829" gradientTransform="matrix(0.1041 -0.5328 0.5328 0.1037 12.5273 -33.9665)">
	<stop  offset="0" style="stop-color:#E9006E"/>
	<stop  offset="0.1846" style="stop-color:#C32682"/>
	<stop  offset="0.5935" style="stop-color:#6485B2"/>
	<stop  offset="1" style="stop-color:#00E9E6"/>
</linearGradient>
<polygon class="st7" points="57.4,146.4 60.2,185.1 24.3,199.7 -0.7,170.2 19.8,137.2 "/>
<linearGradient id="SVGID_9_" gradientUnits="userSpaceOnUse" x1="204.5085" y1="33.8507" x2="276.2293" y2="120.1399" gradientTransform="matrix(-0.9668 -0.2556 0.2556 -0.9668 351.089 184.3289)">
	<stop  offset="0" style="stop-color:#E9006E"/>
	<stop  offset="0.1846" style="stop-color:#C32682"/>
	<stop  offset="0.5935" style="stop-color:#6485B2"/>
	<stop  offset="1" style="stop-color:#00E9E6"/>
</linearGradient>
<polygon class="st8" points="108.4,0.5 174.8,0 195.8,66.7 142.4,108.5 88.4,67.6 "/>
<linearGradient id="SVGID_10_" gradientUnits="userSpaceOnUse" x1="-22.4896" y1="283.6689" x2="47.353" y2="367.6983" gradientTransform="matrix(4.946718e-02 0.9988 -0.9988 4.946718e-02 386.8429 125.8241)">
	<stop  offset="0" style="stop-color:#E9006E"/>
	<stop  offset="0.1846" style="stop-color:#C32682"/>
	<stop  offset="0.5935" style="stop-color:#6485B2"/>
	<stop  offset="1" style="stop-color:#00E9E6"/>
</linearGradient>
<polygon class="st9" points="28.1,198.1 7.5,131.2 61.2,89.8 115,131.1 94.5,198 "/>
<linearGradient id="SVGID_11_" gradientUnits="userSpaceOnUse" x1="219.1135" y1="45.1066" x2="288.4821" y2="128.5656" gradientTransform="matrix(-0.6514 0.2418 -0.2589 -0.64 341.8372 162.4418)">
	<stop  offset="0" style="stop-color:#E9006E"/>
	<stop  offset="0.1846" style="stop-color:#C32682"/>
	<stop  offset="0.5935" style="stop-color:#6485B2"/>
	<stop  offset="1" style="stop-color:#00E9E6"/>
</linearGradient>
<polygon class="st10" points="118.2,154.2 155.5,125.9 193.5,154.3 179.9,200 133.3,200 "/>
<linearGradient id="SVGID_12_" gradientUnits="userSpaceOnUse" x1="263.664" y1="147.7598" x2="333.0414" y2="231.2295" gradientTransform="matrix(-0.7454 0.3045 -0.2799 -0.7618 387.6541 159.0414)">
	<stop  offset="0" style="stop-color:#E9006E"/>
	<stop  offset="0.1846" style="stop-color:#C32682"/>
	<stop  offset="0.5935" style="stop-color:#6485B2"/>
	<stop  offset="1" style="stop-color:#00E9E6"/>
</linearGradient>
<polygon class="st11" points="71.8,89.5 114.7,54.7 157.4,87.8 140.9,143 88,144 "/>
<linearGradient id="SVGID_13_" gradientUnits="userSpaceOnUse" x1="266.5222" y1="-55.8278" x2="323.7796" y2="13.06" gradientTransform="matrix(-0.1008 0.6429 -0.6438 -0.1209 188.9032 -156.8239)">
	<stop  offset="0" style="stop-color:#E9006E"/>
	<stop  offset="0.1846" style="stop-color:#C32682"/>
	<stop  offset="0.5935" style="stop-color:#6485B2"/>
	<stop  offset="1" style="stop-color:#00E9E6"/>
</linearGradient>
<polygon class="st12" points="150.4,54 145.6,15.1 178.5,0.9 203.7,31 186.3,63.9 "/>
<linearGradient id="SVGID_14_" gradientUnits="userSpaceOnUse" x1="73.329" y1="53.3934" x2="145.5958" y2="140.3394" gradientTransform="matrix(-0.8309 -0.5564 0.5564 -0.8309 189.4061 273.0371)">
	<stop  offset="0" style="stop-color:#E9006E"/>
	<stop  offset="0.1846" style="stop-color:#C32682"/>
	<stop  offset="0.5935" style="stop-color:#6485B2"/>
	<stop  offset="1" style="stop-color:#00E9E6"/>
</linearGradient>
<polygon class="st13" points="139,76.2 201.9,98.6 201.3,168.9 137.9,190 99.4,132.7 "/>
<linearGradient id="SVGID_15_" gradientUnits="userSpaceOnUse" x1="-64.0618" y1="55.103" x2="4.2149" y2="137.2484" gradientTransform="matrix(0.3762 -0.3915 0.3917 0.3759 1.6845 105.3377)">
	<stop  offset="0" style="stop-color:#E9006E"/>
	<stop  offset="0.1846" style="stop-color:#C32682"/>
	<stop  offset="0.5935" style="stop-color:#6485B2"/>
	<stop  offset="1" style="stop-color:#00E9E6"/>
</linearGradient>
<polygon class="st14" points="57.3,150.9 40.1,184.4 4.6,177.4 0,139.5 32.6,123.2 "/>
<linearGradient id="SVGID_16_" gradientUnits="userSpaceOnUse" x1="119.1267" y1="-54.8868" x2="188.5123" y2="28.5928" gradientTransform="matrix(0.507 -0.1942 0.1946 0.5068 34.0858 63.172)">
	<stop  offset="0" style="stop-color:#E9006E"/>
	<stop  offset="0.1846" style="stop-color:#C32682"/>
	<stop  offset="0.5935" style="stop-color:#6485B2"/>
	<stop  offset="1" style="stop-color:#00E9E6"/>
</linearGradient>
<polygon class="st15" points="137.1,37.7 108,60.2 78.8,37.9 89.8,1.5 125.8,1.4 "/>
</svg>
