<?xml version="1.0" encoding="utf-8"?>
<!-- Generator: Adobe Illustrator 22.1.0, SVG Export Plug-In . SVG Version: 6.00 Build 0)  -->
<svg version="1.1" id="Layer_1" xmlns="http://www.w3.org/2000/svg" xmlns:xlink="http://www.w3.org/1999/xlink" x="0px" y="0px"
	 viewBox="0 0 200 200" style="enable-background:new 0 0 200 200;" xml:space="preserve">
<style type="text/css">
	.st0{opacity:0.38;}
	.st1{fill:url(#SVGID_1_);}
	.st2{fill:url(#SVGID_2_);}
	.st3{fill:url(#SVGID_3_);}
	.st4{fill:url(#SVGID_4_);}
	.st5{fill:url(#SVGID_5_);}
	.st6{fill:url(#SVGID_6_);}
	.st7{fill:url(#SVGID_7_);}
	.st8{fill:url(#SVGID_8_);}
	.st9{fill:url(#SVGID_9_);}
</style>
<g class="st0">
	<linearGradient id="SVGID_1_" gradientUnits="userSpaceOnUse" x1="20.1314" y1="56.3773" x2="96.8333" y2="56.3773">
		<stop  offset="0" style="stop-color:#FF3F5A"/>
		<stop  offset="1" style="stop-color:#0002E9"/>
	</linearGradient>
	<polygon class="st1" points="96.8,90 20.1,88.2 60,22.7 	"/>
</g>
<g class="st0">
	<linearGradient id="SVGID_2_" gradientUnits="userSpaceOnUse" x1="51.1314" y1="83.3773" x2="127.8333" y2="83.3773">
		<stop  offset="0" style="stop-color:#FF3F5A"/>
		<stop  offset="1" style="stop-color:#0002E9"/>
	</linearGradient>
	<polygon class="st2" points="127.8,117 51.1,115.2 91,49.7 	"/>
</g>
<g class="st0">
	<linearGradient id="SVGID_3_" gradientUnits="userSpaceOnUse" x1="22.9466" y1="89.3683" x2="99.4082" y2="89.3683">
		<stop  offset="0" style="stop-color:#FF3F5A"/>
		<stop  offset="1" style="stop-color:#0002E9"/>
	</linearGradient>
	<polygon class="st3" points="99.4,122.7 22.9,120.1 62,56 	"/>
</g>
<g class="st0">
	<linearGradient id="SVGID_4_" gradientUnits="userSpaceOnUse" x1="61.1314" y1="79.3773" x2="137.8333" y2="79.3773">
		<stop  offset="0" style="stop-color:#FF3F5A"/>
		<stop  offset="1" style="stop-color:#0002E9"/>
	</linearGradient>
	<polygon class="st4" points="137.8,113 61.1,111.2 101,45.7 	"/>
</g>
<g class="st0">
	<linearGradient id="SVGID_5_" gradientUnits="userSpaceOnUse" x1="90.1314" y1="101.3773" x2="166.8333" y2="101.3773">
		<stop  offset="0" style="stop-color:#FF3F5A"/>
		<stop  offset="1" style="stop-color:#0002E9"/>
	</linearGradient>
	<polygon class="st5" points="166.8,135 90.1,133.2 130,67.7 	"/>
</g>
<g class="st0">
	<linearGradient id="SVGID_6_" gradientUnits="userSpaceOnUse" x1="61.9466" y1="107.3683" x2="138.4082" y2="107.3683">
		<stop  offset="0" style="stop-color:#FF3F5A"/>
		<stop  offset="1" style="stop-color:#0002E9"/>
	</linearGradient>
	<polygon class="st6" points="138.4,140.7 61.9,138.1 101,74 	"/>
</g>
<g class="st0">
	<linearGradient id="SVGID_7_" gradientUnits="userSpaceOnUse" x1="61.1314" y1="79.3773" x2="137.8333" y2="79.3773">
		<stop  offset="0" style="stop-color:#FF3F5A"/>
		<stop  offset="1" style="stop-color:#0002E9"/>
	</linearGradient>
	<polygon class="st7" points="137.8,113 61.1,111.2 101,45.7 	"/>
</g>
<g class="st0">
	<linearGradient id="SVGID_8_" gradientUnits="userSpaceOnUse" x1="103.1314" y1="104.3773" x2="179.8333" y2="104.3773">
		<stop  offset="0" style="stop-color:#FF3F5A"/>
		<stop  offset="1" style="stop-color:#0002E9"/>
	</linearGradient>
	<polygon class="st8" points="179.8,138 103.1,136.2 143,70.7 	"/>
</g>
<g class="st0">
	<linearGradient id="SVGID_9_" gradientUnits="userSpaceOnUse" x1="61.9466" y1="107.3683" x2="138.4082" y2="107.3683">
		<stop  offset="0" style="stop-color:#FF3F5A"/>
		<stop  offset="1" style="stop-color:#0002E9"/>
	</linearGradient>
	<polygon class="st9" points="138.4,140.7 61.9,138.1 101,74 	"/>
</g>
</svg>
